<?xml version="1.0" encoding="utf-8"?>
<!-- Generator: Adobe Illustrator 14.0.0, SVG Export Plug-In . SVG Version: 6.00 Build 43363)  -->
<!DOCTYPE svg PUBLIC "-//W3C//DTD SVG 1.1//EN" "http://www.w3.org/Graphics/SVG/1.1/DTD/svg11.dtd">
<svg version="1.1" id="Layer_1" xmlns="http://www.w3.org/2000/svg" xmlns:xlink="http://www.w3.org/1999/xlink" x="0px" y="0px"
	 width="68.371px" height="77.848px" viewBox="0 0 68.371 77.848" enable-background="new 0 0 68.371 77.848" xml:space="preserve">
<path fill="#0F2128" d="M0,58.217c2.024-7.113,3.862-14.415,7.445-19.97c4.651-1.104,9.926-1.583,12.522-4.738
	c-0.533-1.897-2.827-4.262-2.029-5.416c1.39-2.673,6.97-1.153,9.139-3.046c2.285-3.295,2.376-7.857,2.031-11.508
	c2.933-3.875,7.411-5.953,12.861-8.461c4.002-1.845,9.692-4.541,11.847-3.048C56.605,1.434,58.67,0.115,61.94,0
	c0.001,1.242-1.186,1.296-1.692,2.03c2.511,0.029,3.881-1.083,6.432-1.015c-0.386,1.983-2.535,2.202-4.062,3.046
	c1.179,0.64,4.25-1.275,5.754-0.339c0,0.113,0,0.227,0,0.339c-1.298,1.072-2.521,2.219-4.738,2.369
	c0.364,0.989,3.021-0.312,3.386,0.676c-6.566,4.379-13.437,8.454-19.294,13.539c-0.777,1.925-0.799,3.276-0.678,4.74
	c-2.663,3.541-4.079,8.333-5.076,13.538c5.695,4.233,12.75,7.108,19.971,9.816c-1.376,2.756-5.835,1.996-8.124,3.045
	c-0.188,3.313,1.079,6.669-0.676,8.801c-5.017-5.928-10.539-11.351-16.927-15.908c-2.781,1.337-6.725,3.376-10.152,5.077
	c-0.664,1.47-2.455,2.883-4.4,2.03c-4.071,5.181-8.347,10.156-9.814,17.939c-0.6,0.297-0.989,1.073-1.693,0.339
	c0.015,2.947,0.27,6.137-2.031,6.77c-0.286-1.293-0.569-2.588-0.677-4.062c-0.677,1.691-0.805,3.934-2.031,5.077
	c-0.224,0-0.45,0-0.676,0c-0.153-0.854-0.216-1.772-0.338-3.385c-0.748,0.381-0.526,1.729-1.354,2.031
	c-1.439-1.783-0.222-5.816-2.369-6.094C0.425,67.719,1.288,63.923,0,62.278C0,60.925,0,59.57,0,58.217z"/>
</svg>
